<svg width="60" height="59" viewBox="0 0 60 59" fill="none" xmlns="http://www.w3.org/2000/svg">
<g clip-path="url(#clip0_2_100)">
<mask id="mask0_2_100" style="mask-type:alpha" maskUnits="userSpaceOnUse" x="-14" y="-14" width="88" height="87">
<path d="M60 17.2441V41.7559C60 51.2796 52.2796 59 42.7559 59C37.701 59 33.1541 56.825 30 53.3598C26.8459 56.825 22.299 59 17.2441 59C7.72044 59 0 51.2796 0 41.7559V17.2441C0 7.72044 7.72044 0 17.2441 0C22.299 0 26.8459 2.17501 30 5.64023C33.1541 2.17501 37.701 0 42.7559 0C52.2796 0 60 7.72044 60 17.2441Z" stroke="white" stroke-width="27.4016"/>
</mask>
<g mask="url(#mask0_2_100)">
<path fill-rule="evenodd" clip-rule="evenodd" d="M30 5.64022C33.1541 2.17501 37.701 0 42.7559 0C52.2796 0 60 7.72044 60 17.2441V41.7559C60 51.2796 52.2796 59 42.7559 59C37.701 59 33.1541 56.825 30 53.3598C26.8459 56.825 22.299 59 17.2441 59C7.72044 59 0 51.2796 0 41.7559V17.2441C0 7.72044 7.72044 0 17.2441 0C22.299 0 26.8459 2.17501 30 5.64022Z" stroke="white" stroke-width="27.4016"/>
</g>
</g>
<defs>
<clipPath id="clip0_2_100">
<rect width="60" height="59" fill="white"/>
</clipPath>
</defs>
</svg>
